<svg xmlns="http://www.w3.org/2000/svg" xmlns:xlink="http://www.w3.org/1999/xlink" viewBox="0 0 500 500"><defs><style>.cls-1{isolation:isolate;}.cls-2{fill:#fff;}.cls-3{fill:#d8dee4;}.cls-4{fill:url(#Gradiente_sem_nome_40);}.cls-5{fill:url(#Gradiente_sem_nome_29);}.cls-6{fill:#f2f2f2;}.cls-16,.cls-7{fill:#174159;}.cls-44,.cls-49,.cls-8{fill:#bec8d2;}.cls-9{fill:url(#Gradiente_sem_nome_42);}.cls-10{fill:#fae54e;}.cls-11{fill:#fcef95;}.cls-12{fill:#6736dc;}.cls-13{fill:#784de0;}.cls-14{fill:#2e546a;}.cls-15{fill:#45677a;}.cls-16{font-size:7.93px;font-family:Lato-Bold, Lato Bold;font-weight:700;}.cls-17{letter-spacing:0.01em;}.cls-18{letter-spacing:-0.04em;}.cls-19{letter-spacing:0em;}.cls-20{letter-spacing:-0.01em;}.cls-21{letter-spacing:-0.01em;}.cls-22{letter-spacing:-0.01em;}.cls-23{letter-spacing:-0.01em;}.cls-24{fill:url(#Gradiente_sem_nome_26);}.cls-25{fill:#6ca6f0;}.cls-26{fill:#4c93ed;}.cls-27{fill:#16569b;}.cls-28{fill:url(#Gradiente_sem_nome_59);}.cls-29{fill:url(#Gradiente_sem_nome_48);}.cls-30{fill:#f6f6f6;}.cls-31{fill:url(#Gradiente_sem_nome_45);}.cls-32{fill:#5620d8;}.cls-33{fill:url(#Gradiente_sem_nome_45-2);}.cls-34{fill:url(#Gradiente_sem_nome_45-3);}.cls-35{fill:url(#Gradiente_sem_nome_3);}.cls-36{fill:url(#Gradiente_sem_nome_11);}.cls-37{fill:url(#Gradiente_sem_nome_7);}.cls-38{fill:#2d80ea;}.cls-39{fill:url(#Gradiente_sem_nome_48-2);}.cls-40{fill:#e563c8;}.cls-41{fill:#e148be;}.cls-42{fill:#c8d0d9;}.cls-43{fill:url(#Gradiente_sem_nome_54);}.cls-44{font-size:18.18px;font-family:Lato-Black, Lato Black;font-weight:800;}.cls-45{fill:#cbd3db;}.cls-46{fill:url(#Gradiente_sem_nome_58);}.cls-47{fill:url(#Gradiente_sem_nome_67);}.cls-48{fill:url(#Gradiente_sem_nome_61);}.cls-49{mix-blend-mode:overlay;}.cls-50{fill:url(#Gradiente_sem_nome_67-2);}</style><linearGradient id="Gradiente_sem_nome_40" x1="225.91" y1="383.25" x2="225.91" y2="219.41" gradientUnits="userSpaceOnUse"><stop offset="0.01" stop-color="#174159"/><stop offset="1" stop-color="#45677a"/></linearGradient><linearGradient id="Gradiente_sem_nome_29" x1="147.61" y1="445.38" x2="206.97" y2="211.06" gradientUnits="userSpaceOnUse"><stop offset="0.01" stop-color="#bec8d2"/><stop offset="1" stop-color="#f2f2f2"/></linearGradient><linearGradient id="Gradiente_sem_nome_42" x1="260.32" y1="424.67" x2="260.32" y2="174.83" gradientUnits="userSpaceOnUse"><stop offset="0.01" stop-color="#5620d8"/><stop offset="1" stop-color="#45677a"/></linearGradient><linearGradient id="Gradiente_sem_nome_26" x1="177.71" y1="183.49" x2="122.07" y2="137.12" gradientUnits="userSpaceOnUse"><stop offset="0.01" stop-color="#174159"/><stop offset="1" stop-color="#2d80ea"/></linearGradient><linearGradient id="Gradiente_sem_nome_59" x1="222.71" y1="183.49" x2="167.07" y2="137.12" gradientUnits="userSpaceOnUse"><stop offset="0.01" stop-color="#5620d8"/><stop offset="1" stop-color="#2d80ea"/></linearGradient><linearGradient id="Gradiente_sem_nome_48" x1="344.69" y1="347.39" x2="344.69" y2="112.29" gradientUnits="userSpaceOnUse"><stop offset="0" stop-color="#e148be"/><stop offset="1" stop-color="#fae54e"/></linearGradient><linearGradient id="Gradiente_sem_nome_45" x1="151.57" y1="68.82" x2="117.86" y2="133.68" gradientTransform="matrix(0.87, -0.5, 0, 1.15, 103.63, 344.98)" gradientUnits="userSpaceOnUse"><stop offset="0.01" stop-color="#5620d8"/><stop offset="1" stop-color="#e148be"/></linearGradient><linearGradient id="Gradiente_sem_nome_45-2" x1="182.56" y1="82.34" x2="148.85" y2="147.2" xlink:href="#Gradiente_sem_nome_45"/><linearGradient id="Gradiente_sem_nome_45-3" x1="213.55" y1="95.86" x2="179.84" y2="160.72" xlink:href="#Gradiente_sem_nome_45"/><linearGradient id="Gradiente_sem_nome_3" x1="369.19" y1="306.81" x2="348.49" y2="272.54" gradientUnits="userSpaceOnUse"><stop offset="0" stop-color="#fff"/><stop offset="1" stop-color="#2d80ea"/></linearGradient><linearGradient id="Gradiente_sem_nome_11" x1="369.26" y1="329.52" x2="356.88" y2="310.23" gradientUnits="userSpaceOnUse"><stop offset="0" stop-color="#174159"/><stop offset="1" stop-color="#f2f2f2"/></linearGradient><linearGradient id="Gradiente_sem_nome_7" x1="363.06" y1="333.49" x2="350.68" y2="314.2" gradientUnits="userSpaceOnUse"><stop offset="0" stop-color="#174159"/><stop offset="1" stop-color="#fae54e"/></linearGradient><linearGradient id="Gradiente_sem_nome_48-2" x1="325.36" y1="444.98" x2="325.36" y2="348.57" xlink:href="#Gradiente_sem_nome_48"/><linearGradient id="Gradiente_sem_nome_54" x1="380.96" y1="520.05" x2="380.96" y2="420.99" xlink:href="#Gradiente_sem_nome_11"/><linearGradient id="Gradiente_sem_nome_58" x1="267.34" y1="166.54" x2="293.3" y2="70.1" gradientUnits="userSpaceOnUse"><stop offset="0" stop-color="#2d80ea"/><stop offset="1" stop-color="#fae54e"/></linearGradient><linearGradient id="Gradiente_sem_nome_67" x1="192.56" y1="401.2" x2="192.56" y2="236.75" gradientUnits="userSpaceOnUse"><stop offset="0" stop-color="#2d80ea"/><stop offset="1" stop-color="#e148be"/></linearGradient><linearGradient id="Gradiente_sem_nome_61" x1="217.18" y1="233.11" x2="248.45" y2="157.75" xlink:href="#Gradiente_sem_nome_26"/><linearGradient id="Gradiente_sem_nome_67-2" x1="239.88" y1="131.23" x2="220.86" y2="256.65" xlink:href="#Gradiente_sem_nome_67"/></defs><title>4</title><g class="cls-1"><g id="BACKGROUND"><rect class="cls-2" width="500" height="500"/></g><g id="OBJECTS"><path class="cls-3" d="M332.56,311.52,119.25,434.68c-8.86,5.11-16-.31-16-12.12V256.66c0-11.81,7.18-25.52,16-30.63L332.56,102.87c8.86-5.11,16,.31,16,12.12v165.9C348.6,292.7,341.42,306.41,332.56,311.52Z"/><polygon class="cls-4" points="342.52 278.37 109.29 413.02 109.29 251.35 342.52 116.69 342.52 278.37"/><path class="cls-5" d="M103.21,422.56V256.66c0-11.81,7.18-25.52,16-30.63L332.56,102.87c4.06-2.35,7.77-2.47,10.6-.78h0l-13.23-7.76c-2.84-1.77-6.6-1.68-10.73.7L105.89,218.18c-8.86,5.11-16,18.83-16,30.63v165.9c0,6.41,2.12,10.93,5.46,12.91l13.49,7.93h0C105.38,433.59,103.21,429,103.21,422.56Z"/><polygon class="cls-6" points="119.25 226.03 105.89 218.18 319.2 95.02 332.56 102.87 119.25 226.03"/><polygon class="cls-6" points="376.93 298.61 143.7 432.94 143.7 271.26 376.93 136.94 376.93 298.61"/><polygon class="cls-7" points="376.93 142.2 143.7 276.53 143.7 271.26 376.93 136.94 376.93 142.2"/><polygon class="cls-8" points="376.93 153.66 143.7 287.99 143.7 276.53 376.93 142.2 376.93 153.66"/><path class="cls-9" d="M143.7,288v145l13.32-7.7A33.85,33.85,0,0,0,174,395.91V322.44L204.23,305v51.82c0,9.59,6.77,13.46,15.13,8.63h0c8.35-4.82,15.13-16.51,15.13-26.1V324.7c0-9.59,6.77-21.28,15.13-26.1h0c8.36-4.83,15.13-1,15.13,8.62v30.55a14.6,14.6,0,0,0,21.9,12.64l90.28-51.8v-145Z"/><path class="cls-10" d="M201.14,356.15V334.27H192v21.88a2.22,2.22,0,0,0,1.33,1.9,7.13,7.13,0,0,0,6.44,0A2.28,2.28,0,0,0,201.14,356.15Z"/><path class="cls-11" d="M199.82,332.41c1.77,1,1.76,2.69,0,3.72a7.13,7.13,0,0,1-6.44,0c-1.78-1-1.77-2.69,0-3.72A7.1,7.1,0,0,1,199.82,332.41Z"/><path class="cls-8" d="M213.71,307.25a2.78,2.78,0,0,0-2.82.19l-32.71,19.19,1,1.71,32.7-19.19c.42-.24.71-.25.83-.18s.25.31.25.79v2.94a4.73,4.73,0,0,1-2.07,3.58l-12.24,7.11a6.66,6.66,0,0,0-3.06,5.29v5.62a.53.53,0,0,0,.28.38,1.57,1.57,0,0,0,1.4,0,.52.52,0,0,0,.29-.38v-5.62a4.7,4.7,0,0,1,2.07-3.57L211.89,318A6.65,6.65,0,0,0,215,312.7v-2.94A2.77,2.77,0,0,0,213.71,307.25Z"/><path class="cls-12" d="M212.92,313.91a11.77,11.77,0,0,0-5.34-9.21c-1.57-.91-3-.94-4-.26h0L174.9,321l7.58,13s21.13-12.38,28.71-16.6A3.72,3.72,0,0,0,212.92,313.91Z"/><path class="cls-13" d="M173.35,324.44a11.77,11.77,0,0,0,5.34,9.21c2.94,1.7,5.34.34,5.34-3a11.81,11.81,0,0,0-5.34-9.21C175.74,319.69,173.35,321.05,173.35,324.44Z"/><path class="cls-7" d="M176.89,326.48a4,4,0,0,0,1.8,3.11c1,.57,1.79.11,1.79-1a4,4,0,0,0-1.79-3.1C177.69,324.88,176.89,325.34,176.89,326.48Z"/><path class="cls-8" d="M177.57,326.87a2.48,2.48,0,0,0,1.12,1.94c.61.35,1.12.07,1.12-.64a2.48,2.48,0,0,0-1.12-1.93C178.07,325.88,177.57,326.17,177.57,326.87Z"/><polygon class="cls-14" points="140.77 269.52 140.77 431.19 143.7 432.94 143.7 271.26 140.77 269.52"/><polygon class="cls-15" points="140.77 269.52 143.7 271.26 376.93 136.94 374 134.87 140.77 269.52"/><polygon class="cls-6" points="362.7 200.6 210.18 288.66 210.18 274.21 362.7 186.15 362.7 200.6"/><text class="cls-16" transform="matrix(0.87, -0.5, 0, 1, 259.99, 255.1)"><tspan class="cls-17">ww</tspan><tspan class="cls-18" x="11.86" y="0">w</tspan><tspan class="cls-19" x="17.38" y="0">.</tspan><tspan class="cls-20" x="19.02" y="0">w</tspan><tspan x="24.78" y="0">ebsi</tspan><tspan class="cls-21" x="38.25" y="0">t</tspan><tspan class="cls-22" x="40.83" y="0">e</tspan><tspan class="cls-19" x="44.7" y="0">.</tspan><tspan class="cls-23" x="46.34" y="0">c</tspan><tspan x="49.85" y="0">om</tspan></text><polygon class="cls-2" points="208.44 273.2 210.18 274.21 362.7 186.15 360.96 185.14 208.44 273.2"/><polygon class="cls-8" points="210.18 288.66 208.44 287.65 208.44 273.2 210.18 274.21 210.18 288.66"/><polygon class="cls-24" points="162.12 154.5 103.21 188.51 103.21 137.4 162.12 103.39 162.12 154.5"/><polygon class="cls-25" points="162.12 103.39 103.21 137.4 99.92 135.61 158.82 101.61 162.12 103.39"/><polygon class="cls-26" points="99.92 186.72 103.21 188.51 103.21 137.4 99.92 135.61 99.92 186.72"/><line class="cls-26" x1="127.1" y1="146.62" x2="123.8" y2="144.83"/><path class="cls-6" d="M151.54,138.76v0c0-8.13-5.74-11.4-12.82-7.31-5.15,3-9.58,9-11.62,15.19a9.41,9.41,0,0,0-3.31,1.22c-5.21,3-9.43,10.29-9.43,16.27s4.22,8.38,9.43,5.37l27.36-15.8a14.11,14.11,0,0,0,6.41-11.06C157.56,138.71,154.9,137.06,151.54,138.76Z"/><path class="cls-8" d="M151.54,138.74v0a4.37,4.37,0,0,1,4.1-.27h0l-3.17-1.71a3.15,3.15,0,0,0-1.1-.4A14.81,14.81,0,0,1,151.54,138.74Z"/><path class="cls-27" d="M114.36,164.11c0-6,4.22-13.26,9.43-16.27a9.41,9.41,0,0,1,3.31-1.22c2-6.19,6.47-12.22,11.62-15.19,3.45-2,6.59-2.24,8.9-1h0l-3.26-1.76c-2.31-1.25-5.46-1-8.94,1-5.14,3-9.57,9-11.62,15.19a9.48,9.48,0,0,0-3.31,1.22c-5.21,3-9.43,10.29-9.43,16.27,0,3,1,5.08,2.76,6.05l3.46,1.88h0C115.48,169.3,114.36,167.18,114.36,164.11Z"/><polygon class="cls-28" points="207.12 154.5 148.22 188.51 148.22 137.4 207.12 103.39 207.12 154.5"/><polygon class="cls-25" points="207.12 103.39 148.22 137.4 144.92 135.61 203.83 101.61 207.12 103.39"/><polygon class="cls-26" points="144.92 186.72 148.22 188.51 148.22 137.4 144.92 135.61 144.92 186.72"/><line class="cls-26" x1="172.1" y1="146.62" x2="168.81" y2="144.83"/><polygon class="cls-7" points="389.57 223.69 299.52 276.13 297.81 275.15 387.86 222.72 389.57 223.69"/><polygon class="cls-7" points="299.52 276.13 299.81 352.57 298.09 351.59 297.81 275.15 299.52 276.13"/><polygon class="cls-29" points="388.68 299.46 300.98 350.53 300.7 276.8 388.4 225.73 388.68 299.46"/><path class="cls-30" d="M389.86,300.13l-90.05,52.44-.29-76.44,90.05-52.43ZM302.15,348.5l85.35-49.71-.26-71-85.36,49.71Z"/><path class="cls-31" d="M223.53,418.46c0-8.42-5.95-11.82-13.29-7.58S197,425.39,197,433.81c0,7.14,4.27,10.66,10,9l3.25,4.58,3.25-8.33C219.26,434.06,223.53,425.6,223.53,418.46Z"/><path class="cls-6" d="M212.23,426.32a4.41,4.41,0,0,1-2,3.44c-1.1.64-2,.13-2-1.14a4.41,4.41,0,0,1,2-3.44C211.34,424.55,212.23,425.06,212.23,426.32Z"/><path class="cls-6" d="M218.67,422.6a4.38,4.38,0,0,1-2,3.44c-1.1.64-2,.13-2-1.13a4.38,4.38,0,0,1,2-3.44C217.78,420.83,218.67,421.34,218.67,422.6Z"/><path class="cls-6" d="M201.81,432.34c0,1.26.89,1.77,2,1.14a4.42,4.42,0,0,0,2-3.44c0-1.26-.9-1.77-2-1.14A4.41,4.41,0,0,0,201.81,432.34Z"/><path class="cls-32" d="M197,433.81c0-8.42,6-18.69,13.29-22.93,3.66-2.11,7-2.33,9.38-1L216,407.85c-2.4-1.35-5.7-1.13-9.35,1-7.34,4.24-13.29,14.51-13.29,22.93,0,4.17,1.46,7.1,3.82,8.49l3.63,2.1C198.44,441,197,438,197,433.81Z"/><path class="cls-32" d="M219.77,410h0l-.11-.06Z"/><path class="cls-32" d="M207.43,443.43l-.44-.63a9.64,9.64,0,0,1-1.84.36l1.54,2.17,3.55,2.05-2.81-3.95Z"/><path class="cls-33" d="M256.46,399.45c0-8.42-5.95-11.82-13.29-7.58s-13.3,14.51-13.3,22.93c0,7.14,4.28,10.66,10,9l3.25,4.58,3.24-8.33C252.18,415.05,256.46,406.59,256.46,399.45Z"/><path class="cls-6" d="M243.17,413.83c3.58-3.68,6.35-11.58,4.19-12.7-1.67-.87-4.19,4.88-4.19,4.88s-2.53-2.83-4.2,0C236.81,409.58,239.58,414.28,243.17,413.83Z"/><path class="cls-32" d="M229.87,414.8c0-8.42,5.95-18.69,13.3-22.93,3.66-2.11,7-2.33,9.38-1L249,388.84c-2.4-1.34-5.71-1.12-9.35,1-7.35,4.24-13.3,14.51-13.3,22.93,0,4.17,1.46,7.1,3.82,8.49l3.63,2.1C231.36,422,229.87,419,229.87,414.8Z"/><path class="cls-32" d="M252.7,391h0l-.1-.06Z"/><path class="cls-32" d="M240.36,424.42l-.44-.63a10,10,0,0,1-1.84.36l1.54,2.17,3.55,2.05-2.81-3.95Z"/><path class="cls-34" d="M289.38,380.44c0-8.42-5.95-11.82-13.29-7.58s-13.29,14.51-13.29,22.93c0,7.14,4.27,10.66,10,9l3.25,4.58,3.25-8.33C285.11,396,289.38,387.58,289.38,380.44Z"/><path class="cls-6" d="M273.68,389.56A4.68,4.68,0,0,1,272,393.3c-1,.55-1.73-.23-1.73-1.74a4.64,4.64,0,0,1,1.73-3.74C272.9,387.26,273.68,388.05,273.68,389.56Z"/><path class="cls-6" d="M278.5,386.77c0,1.52.78,2.3,1.73,1.75a4.65,4.65,0,0,0,1.73-3.74c0-1.52-.77-2.3-1.73-1.75A4.7,4.7,0,0,0,278.5,386.77Z"/><path class="cls-6" d="M276.09,392.51c-1,.57-1.79.11-1.79-1a.7.7,0,0,1,.31-.55c.18-.1.32,0,.32.18,0,.73.52,1,1.16.66a2.56,2.56,0,0,0,1.16-2,.68.68,0,0,1,.32-.54c.17-.11.31,0,.31.18A4,4,0,0,1,276.09,392.51Z"/><path class="cls-32" d="M262.8,395.79c0-8.42,5.95-18.69,13.29-22.93,3.66-2.11,7-2.33,9.38-1l-3.58-2.06c-2.4-1.34-5.7-1.12-9.35,1-7.34,4.24-13.29,14.51-13.29,22.93,0,4.17,1.45,7.1,3.82,8.49l3.63,2.1C264.29,403,262.8,400,262.8,395.79Z"/><path class="cls-32" d="M285.62,372h0l-.11-.06Z"/><path class="cls-32" d="M273.28,405.41l-.44-.62a10.66,10.66,0,0,1-1.84.36l1.54,2.17,3.55,2.05-2.81-4Z"/><polygon class="cls-7" points="409.86 235.4 319.81 287.84 318.1 286.86 408.15 234.42 409.86 235.4"/><polygon class="cls-7" points="319.81 287.84 320.1 364.27 318.38 363.29 318.1 286.86 319.81 287.84"/><polygon class="cls-35" points="408.97 311.17 321.26 362.24 320.99 288.5 408.69 237.44 408.97 311.17"/><ellipse class="cls-10" cx="365.01" cy="309.26" rx="16.84" ry="9.72" transform="translate(-85.59 469.97) rotate(-59.9)"/><polygon class="cls-36" points="408.86 283.72 321.16 334.79 321.26 362.24 408.97 311.17 408.86 283.72"/><polygon class="cls-37" points="353.1 316.2 321.26 362.24 408.97 311.17 376.93 302.32 353.1 316.2"/><polygon class="cls-38" points="408.86 283.69 408.8 269.64 396.27 291.08 408.86 283.69"/><polygon class="cls-38" points="401.71 287.9 395.37 284.55 389.1 295.27 401.71 287.9"/><polygon class="cls-38" points="321.16 334.75 321.12 320.69 333.75 327.49 321.16 334.75"/><polygon class="cls-38" points="328.32 330.63 334.61 319.93 340.92 323.33 328.32 330.63"/><path class="cls-30" d="M410.15,311.83l-90.06,52.44-.28-76.43,90.05-52.44ZM322.43,360.2l85.36-49.7-.27-71-85.35,49.7Z"/><polygon class="cls-39" points="348.04 410.41 302.68 436.61 302.68 395.03 348.04 368.84 348.04 410.41"/><polygon class="cls-40" points="348.04 368.84 302.68 395.03 299.59 393.36 344.96 367.16 348.04 368.84"/><polygon class="cls-41" points="299.59 434.93 302.68 436.61 302.68 395.03 299.59 393.36 299.59 434.93"/><polygon class="cls-42" points="323.37 414.26 320.29 412.59 320.29 397.99 333.44 397.7 336.53 399.37 323.37 399.66 323.37 414.26"/><polygon class="cls-6" points="336.53 399.37 323.37 399.66 323.37 414.26 336.53 399.37"/><path class="cls-43" d="M360.41,365.49v65.43c-1.69,9.42,6.76,10.51,6.76,10.51l34.57-19.95V341.63Z"/><polygon class="cls-8" points="395.41 376.68 366.73 393.24 366.73 390.68 395.41 374.12 395.41 376.68"/><polygon class="cls-8" points="395.41 381.53 366.73 398.09 366.73 395.52 395.41 378.96 395.41 381.53"/><polygon class="cls-8" points="395.41 386.37 366.73 402.93 366.73 400.37 395.41 383.81 395.41 386.37"/><polygon class="cls-8" points="395.41 391.21 366.73 407.78 366.73 405.21 395.41 388.65 395.41 391.21"/><polygon class="cls-8" points="395.41 396.06 366.73 412.62 366.73 410.06 395.41 393.5 395.41 396.06"/><polygon class="cls-8" points="395.41 400.9 366.73 417.46 366.73 414.9 395.41 398.34 395.41 400.9"/><polygon class="cls-8" points="395.41 405.75 366.73 422.31 366.73 419.75 395.41 403.18 395.41 405.75"/><text class="cls-44" transform="matrix(0.87, -0.5, 0, 1, 377.1, 379.34)">T</text><polygon class="cls-8" points="358.72 433.15 360.41 433.15 360.41 365.49 358.72 364.51 358.72 433.15"/><polygon class="cls-45" points="358.72 364.51 360.41 365.49 401.74 341.63 400.04 340.65 358.72 364.51"/><path class="cls-8" d="M365.66,441.83a4.56,4.56,0,0,1-2.31-.7,10,10,0,0,1-4.63-8h1.69a8.46,8.46,0,0,0,3.78,6.52,1.74,1.74,0,0,0,2.94-1.67,8.48,8.48,0,0,0-3.78-6.52l.84-1.46a10,10,0,0,1,4.63,8,3.71,3.71,0,0,1-1.65,3.43A2.92,2.92,0,0,1,365.66,441.83Z"/><path class="cls-45" d="M405.52,406.16,364.19,430a10.17,10.17,0,0,1,4.33,5.9h0a8,8,0,0,1,.3,2.07,3.71,3.71,0,0,1-1.65,3.43l41.33-23.86a3.73,3.73,0,0,0,1.65-3.43A10.07,10.07,0,0,0,405.52,406.16Z"/><path class="cls-7" d="M276.91,138.7a16.8,16.8,0,0,0,7.62-13.15c0-4.83-3.41-6.78-7.62-4.35a12.54,12.54,0,0,0-1.68,1.19,17.66,17.66,0,0,1-5.75,9.88,12.52,12.52,0,0,0-.2,2.09C269.28,139.19,272.7,141.14,276.91,138.7Z"/><path class="cls-7" d="M290.67,106.29Z"/><path class="cls-7" d="M257.49,141.17h0c0-4.17,15.83-31.43,19.42-33.5,5.35-3.09,10.2-3.4,13.71-1.41l-8.42-4.83c-3.56-2.44-8.69-2.31-14.39,1-10.73,6.19-19.42,21.19-19.42,33.49h0c0,7.25,2,15.58,9.7,19.87l8.81,5.08C259.43,156.53,257.49,148.32,257.49,141.17Z"/><path class="cls-7" d="M267.25,161.06l0,0h0Z"/><path class="cls-46" d="M276.91,107.67c-10.73,6.19-19.42,21.19-19.42,33.5h0c0,9.65,3.51,21.22,19.42,22.6,15.9-19.74,19.41-35.37,19.42-45h0C296.33,106.44,287.63,101.48,276.91,107.67Zm0,31c-4.21,2.44-7.63.49-7.63-4.34s3.42-10.72,7.63-13.16,7.62-.48,7.62,4.35A16.8,16.8,0,0,1,276.91,138.7Z"/><polygon class="cls-27" points="160.62 160.97 164.15 156.82 164.15 156.82 172.76 146.67 169.47 144.89 157.33 159.19 157.33 161.27 160.62 163.06 160.62 161.34 160.62 161.34 160.62 160.97"/><path class="cls-8" d="M166,158.89a6,6,0,0,1,1.74-.31l4.26.19a.71.71,0,0,1,.43.11h0l-3.33-1.81v0a.84.84,0,0,0-.42-.1l-.75,0-.21.25A16.48,16.48,0,0,1,166,158.89Z"/><path class="cls-27" d="M183.36,136.55a5.64,5.64,0,0,1,.92-1.87,4.68,4.68,0,0,1,1.42-1.29l2-1.14h0l-3.3-1.79-2,1.15a4.8,4.8,0,0,0-1.43,1.28,5.71,5.71,0,0,0-.91,1.87l-8.52,30.56,3.3,1.79h0Z"/><path class="cls-27" d="M186.78,139.51v0l3.38,1.84h0a.55.55,0,0,1-.23-.17,1.09,1.09,0,0,1-.17-.63v-3.7l12.14.28-3.29-1.78-11.72-.28-.42,1.54v2.15a1,1,0,0,0,.17.63A.49.49,0,0,0,186.78,139.51Z"/><path class="cls-27" d="M189.93,149a3.14,3.14,0,0,1,.58-.89l4.26-5.11a16.48,16.48,0,0,1,1.74-1.69,6.45,6.45,0,0,1-1.74.32l-3.52-.15-4,4.84a3.06,3.06,0,0,0-.58.89,2.16,2.16,0,0,0-.17.83v3.7l3.29,1.79v-3.7A2.37,2.37,0,0,1,189.93,149Z"/><path class="cls-6" d="M167.76,157.2a16.48,16.48,0,0,1-1.74,1.69,6,6,0,0,1,1.74-.31l4.26.19a.63.63,0,0,1,.57.22,1,1,0,0,1,.18.63v3.7l-12.15-.26V161l12.15-14.3v3.7a2.18,2.18,0,0,1-.18.83,3.22,3.22,0,0,1-.57.91Z"/><path class="cls-6" d="M179.25,162.65a5.89,5.89,0,0,1-.42,1.08,6.8,6.8,0,0,1-.59.94,5,5,0,0,1-.69.75,3.38,3.38,0,0,1-.72.54l-2,1.15,8.51-30.56a5.64,5.64,0,0,1,.92-1.87,4.68,4.68,0,0,1,1.42-1.29l2-1.14Z"/><path class="cls-6" d="M201.9,137.14v2.08l-12.14,14.29v-3.7a2.37,2.37,0,0,1,.17-.83,3.14,3.14,0,0,1,.58-.89l4.26-5.11a16.48,16.48,0,0,1,1.74-1.69,6.45,6.45,0,0,1-1.74.32l-4.26-.18a.67.67,0,0,1-.58-.24,1.09,1.09,0,0,1-.17-.63v-3.7Z"/><rect class="cls-32" x="193.06" y="234.18" width="22.69" height="7.9" transform="matrix(0.5, -0.87, 0.87, 0.5, -104.13, 295.52)"/><path class="cls-47" d="M185.32,278.59a7.48,7.48,0,0,1-5.37-2.28,6.74,6.74,0,0,1-1.15-1.57,7.45,7.45,0,0,1,.09-7.32h0l14.45-24.92a7.45,7.45,0,0,1,10.13-2.74h0a7.45,7.45,0,0,1,2.76,10.2l-14.45,24.93A7.47,7.47,0,0,1,185.32,278.59Zm.41-7.21Z"/><path class="cls-48" d="M219.57,235.53a14.45,14.45,0,0,1-7.3-1.89c-2.93-1.69-7.86-6.08-7.86-16.4,0-14.31,9.76-31.15,22.23-38.35,9.05-5.23,15.36-3.14,18.31-1.44s7.87,6.08,7.87,16.41c0,14.31-9.77,31.15-22.23,38.35A22,22,0,0,1,219.57,235.53Zm18.14-52a14.74,14.74,0,0,0-7.12,2.24c-9.91,5.72-18.28,20.15-18.28,31.51,0,4.64,1.43,8.13,3.91,9.56s6.32.93,10.42-1.44c9.9-5.71,18.27-20.14,18.27-31.5,0-4.64-1.42-8.13-3.91-9.56A6.52,6.52,0,0,0,237.71,183.49Z"/><path class="cls-32" d="M204.41,217.24c0-14.31,9.76-31.15,22.23-38.35,9.05-5.23,15.36-3.14,18.31-1.44l-9.68-5.59c-3-1.7-9.27-3.79-18.32,1.44-12.46,7.19-22.22,24-22.22,38.35,0,10.32,4.92,14.71,7.86,16.4l9.68,5.59C209.34,232,204.41,227.56,204.41,217.24Z"/><path class="cls-32" d="M216.22,226.8c2.52,1.45,6.32.93,10.42-1.44,9.9-5.71,18.27-20.14,18.27-31.5,0-4.64-1.42-8.13-3.91-9.56a6.52,6.52,0,0,0-3.29-.81,11.16,11.16,0,0,0-3,.45,18,18,0,0,1,.49,4.33c0,11.36-8.37,25.78-18.28,31.5a18.19,18.19,0,0,1-4.14,1.8A8,8,0,0,0,216.22,226.8Z"/><path class="cls-49" d="M243.57,193c0,11.66-8.23,25.87-18.39,31.74s-18.4,1.17-18.4-10.49,8.24-25.87,18.4-31.74S243.57,181.34,243.57,193Z"/><path class="cls-50" d="M219.57,235.53a14.45,14.45,0,0,1-7.3-1.89c-2.93-1.69-7.86-6.08-7.86-16.4,0-14.31,9.76-31.15,22.23-38.35,9.05-5.23,15.36-3.14,18.31-1.44s7.87,6.08,7.87,16.41c0,14.31-9.77,31.15-22.23,38.35A22,22,0,0,1,219.57,235.53Zm18.14-52a14.74,14.74,0,0,0-7.12,2.24c-9.91,5.72-18.28,20.15-18.28,31.51,0,4.64,1.43,8.13,3.91,9.56s6.32.93,10.42-1.44c9.9-5.71,18.27-20.14,18.27-31.5,0-4.64-1.42-8.13-3.91-9.56A6.52,6.52,0,0,0,237.71,183.49Z"/><path class="cls-8" d="M240,189.37a16.65,16.65,0,0,1,.3,5.18,24.39,24.39,0,0,1-.95,4.81,33,33,0,0,1-4.05,8.48,31.6,31.6,0,0,0,1.95-8.87,21.05,21.05,0,0,0-.14-4.36,13.1,13.1,0,0,0-1.15-3.88,2.15,2.15,0,0,1,3.84-1.93,1.66,1.66,0,0,1,.17.47Z"/></g></g></svg>