<svg id="Слой_1" data-name="Слой 1" xmlns="http://www.w3.org/2000/svg" xmlns:xlink="http://www.w3.org/1999/xlink" viewBox="0 0 655 655"><defs><style>.cls-1{fill:#fff;}.cls-2{fill:#d8dee4;}.cls-3{fill:url(#Безымянный_градиент_4);}.cls-4{fill:url(#Безымянный_градиент_2);}.cls-5{fill:#f2f2f2;}.cls-16,.cls-17,.cls-18,.cls-19,.cls-20,.cls-6{fill:#174159;}.cls-42,.cls-7{fill:#bec8d2;}.cls-8{fill:url(#Безымянный_градиент_3);}.cls-9{fill:#fae54e;}.cls-10{fill:#fcef95;}.cls-11{fill:#6736dc;}.cls-12{fill:#784de0;}.cls-13{fill:#2e546a;}.cls-14{fill:#45677a;}.cls-15,.cls-16,.cls-17,.cls-18,.cls-19,.cls-20,.cls-42{isolation:isolate;}.cls-16,.cls-17,.cls-18,.cls-19,.cls-20{font-size:10.39px;}.cls-16,.cls-17,.cls-18,.cls-19,.cls-20,.cls-42{font-family:Arial-BoldMT, Arial;font-weight:700;}.cls-16{letter-spacing:0.01em;}.cls-17{letter-spacing:-0.04em;}.cls-19{letter-spacing:-0.01em;}.cls-20{letter-spacing:-0.01em;}.cls-21{fill:url(#Безымянный_градиент_17);}.cls-22{fill:#6ca6f0;}.cls-23{fill:#4c93ed;}.cls-24{fill:none;}.cls-25{fill:#16569b;}.cls-26{fill:url(#Безымянный_градиент_5);}.cls-27{fill:url(#Безымянный_градиент_13);}.cls-28{fill:#f6f6f6;}.cls-29{fill:url(#Безымянный_градиент_9);}.cls-30{fill:#5620d8;}.cls-31{fill:url(#Безымянный_градиент_9-2);}.cls-32{fill:url(#Безымянный_градиент_9-3);}.cls-33{fill:url(#Безымянный_градиент_10);}.cls-34{fill:url(#Безымянный_градиент_14);}.cls-35{fill:url(#Безымянный_градиент_12);}.cls-36{fill:#2d80ea;}.cls-37{fill:url(#Безымянный_градиент_13-2);}.cls-38{fill:#e563c8;}.cls-39{fill:#e148be;}.cls-40{fill:#c8d0d9;}.cls-41{fill:url(#Безымянный_градиент_14-2);}.cls-42{font-size:23.82px;}.cls-43{fill:#cbd3db;}.cls-44{fill:url(#Безымянный_градиент_15);}.cls-45{fill:url(#Безымянный_градиент_18);}.cls-46{fill:url(#Безымянный_градиент_17-2);}.cls-47{fill:url(#Безымянный_градиент_18-2);}</style><linearGradient id="Безымянный_градиент_4" x1="321.94" y1="167.94" x2="321.94" y2="382.57" gradientTransform="matrix(1, 0, 0, -1, -26, 670)" gradientUnits="userSpaceOnUse"><stop offset="0.01" stop-color="#174159"/><stop offset="1" stop-color="#45677a"/></linearGradient><linearGradient id="Безымянный_градиент_2" x1="219.39" y1="86.56" x2="297.15" y2="393.52" gradientTransform="matrix(1, 0, 0, -1, 0, 702)" gradientUnits="userSpaceOnUse"><stop offset="0.01" stop-color="#bec8d2"/><stop offset="1" stop-color="#f2f2f2"/></linearGradient><linearGradient id="Безымянный_градиент_3" x1="367.01" y1="113.68" x2="367.01" y2="440.97" gradientTransform="matrix(1, 0, 0, -1, 0, 702)" gradientUnits="userSpaceOnUse"><stop offset="0.01" stop-color="#5620d8"/><stop offset="1" stop-color="#45677a"/></linearGradient><linearGradient id="Безымянный_градиент_17" x1="258.8" y1="429.63" x2="185.91" y2="490.37" gradientTransform="matrix(1, 0, 0, -1, -26, 670)" gradientUnits="userSpaceOnUse"><stop offset="0.01" stop-color="#174159"/><stop offset="1" stop-color="#2d80ea"/></linearGradient><linearGradient id="Безымянный_градиент_5" x1="317.75" y1="429.63" x2="244.86" y2="490.38" gradientTransform="matrix(1, 0, 0, -1, -26, 670)" gradientUnits="userSpaceOnUse"><stop offset="0.01" stop-color="#5620d8"/><stop offset="1" stop-color="#2d80ea"/></linearGradient><linearGradient id="Безымянный_градиент_13" x1="477.54" y1="214.92" x2="477.54" y2="522.9" gradientTransform="matrix(1, 0, 0, -1, -26, 670)" gradientUnits="userSpaceOnUse"><stop offset="0" stop-color="#e148be"/><stop offset="1" stop-color="#fae54e"/></linearGradient><linearGradient id="Безымянный_градиент_9" x1="219.98" y1="573.36" x2="175.82" y2="488.39" gradientTransform="matrix(0.87, -0.5, 0, -1.15, 142.76, 1257.63)" gradientUnits="userSpaceOnUse"><stop offset="0.01" stop-color="#5620d8"/><stop offset="1" stop-color="#e148be"/></linearGradient><linearGradient id="Безымянный_градиент_9-2" x1="260.33" y1="555.77" x2="216.17" y2="470.81" xlink:href="#Безымянный_градиент_9"/><linearGradient id="Безымянный_градиент_9-3" x1="300.7" y1="538.18" x2="256.54" y2="453.21" xlink:href="#Безымянный_градиент_9"/><linearGradient id="Безымянный_градиент_10" x1="509.63" y1="268.08" x2="482.52" y2="312.97" gradientTransform="matrix(1, 0, 0, -1, -26, 670)" gradientUnits="userSpaceOnUse"><stop offset="0" stop-color="#fff"/><stop offset="1" stop-color="#2d80ea"/></linearGradient><linearGradient id="Безымянный_градиент_14" x1="509.73" y1="238.33" x2="493.51" y2="263.6" gradientTransform="matrix(1, 0, 0, -1, -26, 670)" gradientUnits="userSpaceOnUse"><stop offset="0" stop-color="#174159"/><stop offset="1" stop-color="#f2f2f2"/></linearGradient><linearGradient id="Безымянный_градиент_12" x1="501.6" y1="233.12" x2="485.38" y2="258.39" gradientTransform="matrix(1, 0, 0, -1, -26, 670)" gradientUnits="userSpaceOnUse"><stop offset="0" stop-color="#174159"/><stop offset="1" stop-color="#fae54e"/></linearGradient><linearGradient id="Безымянный_градиент_13-2" x1="452.22" y1="87.08" x2="452.22" y2="213.37" xlink:href="#Безымянный_градиент_13"/><linearGradient id="Безымянный_градиент_14-2" x1="525.06" y1="-11.27" x2="525.06" y2="118.5" gradientTransform="matrix(1, 0, 0, -1, 0, 702)" xlink:href="#Безымянный_градиент_14"/><linearGradient id="Безымянный_градиент_15" x1="376.22" y1="451.83" x2="410.22" y2="578.17" gradientTransform="matrix(1, 0, 0, -1, 0, 702)" gradientUnits="userSpaceOnUse"><stop offset="0" stop-color="#2d80ea"/><stop offset="1" stop-color="#fae54e"/></linearGradient><linearGradient id="Безымянный_градиент_18" x1="278.25" y1="144.43" x2="278.25" y2="359.86" gradientTransform="matrix(1, 0, 0, -1, 0, 702)" gradientUnits="userSpaceOnUse"><stop offset="0" stop-color="#2d80ea"/><stop offset="1" stop-color="#e148be"/></linearGradient><linearGradient id="Безымянный_градиент_17-2" x1="310.5" y1="364.63" x2="351.47" y2="463.35" gradientTransform="matrix(1, 0, 0, -1, 0, 702)" xlink:href="#Безымянный_градиент_17"/><linearGradient id="Безымянный_градиент_18-2" x1="340.25" y1="498.09" x2="315.33" y2="333.79" xlink:href="#Безымянный_градиент_18"/></defs><title>4</title><g id="BACKGROUND"><rect class="cls-1" width="655" height="655"/></g><g id="OBJECTS"><path class="cls-2" d="M461.65,440.09,182.22,601.43c-11.61,6.69-21-.41-21-15.88V368.22c0-15.47,9.4-33.43,21-40.12L461.65,166.76c11.61-6.69,21,.41,21,15.88V400C482.67,415.44,473.26,433.4,461.65,440.09Z" transform="translate(-26 -32)"/><polygon class="cls-3" points="448.7 364.67 143.17 541.06 143.17 329.27 448.7 152.86 448.7 364.67"/><path class="cls-4" d="M161.21,585.55V368.22c0-15.47,9.4-33.43,21-40.12L461.65,166.76c5.32-3.08,10.18-3.24,13.89-1h0l-17.33-10.17c-3.72-2.32-8.65-2.2-14.06.92L164.72,317.82c-11.61,6.69-21,24.66-21,40.12V575.27c0,8.4,2.77,14.32,7.15,16.91l17.67,10.39h0C164.05,600,161.21,594,161.21,585.55Z" transform="translate(-26 -32)"/><polygon class="cls-5" points="156.22 296.1 138.72 285.82 418.15 124.48 435.65 134.76 156.22 296.1"/><polygon class="cls-5" points="493.78 391.18 188.25 567.15 188.25 355.35 493.78 179.39 493.78 391.18"/><polygon class="cls-6" points="493.78 186.28 188.25 362.25 188.25 355.35 493.78 179.39 493.78 186.28"/><polygon class="cls-7" points="493.78 201.29 188.25 377.27 188.25 362.25 493.78 186.28 493.78 201.29"/><path class="cls-8" d="M214.25,409.28v190l17.45-10.09a44.36,44.36,0,0,0,22.24-38.5V454.4l39.6-22.85v67.88c0,12.57,8.87,17.64,19.82,11.31h0c10.94-6.31,19.82-21.63,19.82-34.19V457.36c0-12.57,8.87-27.88,19.82-34.19h0c10.95-6.33,19.82-1.31,19.82,11.29v40A19.13,19.13,0,0,0,401.51,491l118.27-67.86v-190Z" transform="translate(-26 -32)"/><path class="cls-9" d="M289.49,498.56V469.89h-12v28.67a2.92,2.92,0,0,0,1.74,2.49,9.36,9.36,0,0,0,8.44,0A3,3,0,0,0,289.49,498.56Z" transform="translate(-26 -32)"/><path class="cls-10" d="M287.76,467.46c2.32,1.31,2.31,3.52,0,4.87a9.34,9.34,0,0,1-8.43,0c-2.33-1.31-2.32-3.52,0-4.87A9.28,9.28,0,0,1,287.76,467.46Z" transform="translate(-26 -32)"/><path class="cls-7" d="M306,434.5a3.62,3.62,0,0,0-3.69.25l-42.85,25.14,1.31,2.24L303.56,437c.55-.32.93-.33,1.09-.24s.33.41.33,1v3.85a6.24,6.24,0,0,1-2.71,4.69l-16,9.31a8.75,8.75,0,0,0-4,6.93v7.36a.71.71,0,0,0,.37.5,2,2,0,0,0,1.83,0,.65.65,0,0,0,.38-.5v-7.36a6.19,6.19,0,0,1,2.72-4.68l16.06-9.31a8.69,8.69,0,0,0,4.07-6.94v-3.85A3.62,3.62,0,0,0,306,434.5Z" transform="translate(-26 -32)"/><path class="cls-11" d="M304.93,443.22a15.43,15.43,0,0,0-7-12.06c-2.06-1.2-3.93-1.23-5.24-.34h0l-37.57,21.69,9.93,17s27.68-16.22,37.61-21.75A4.87,4.87,0,0,0,304.93,443.22Z" transform="translate(-26 -32)"/><path class="cls-12" d="M253.09,457a15.41,15.41,0,0,0,7,12.06c3.86,2.23,7,.45,7-3.93a15.44,15.44,0,0,0-7-12.06C256.22,450.79,253.09,452.58,253.09,457Z" transform="translate(-26 -32)"/><path class="cls-6" d="M257.73,459.69a5.23,5.23,0,0,0,2.35,4.07c1.31.75,2.35.15,2.35-1.31a5.25,5.25,0,0,0-2.35-4.06C258.77,457.59,257.73,458.2,257.73,459.69Z" transform="translate(-26 -32)"/><path class="cls-7" d="M258.62,460.2a3.23,3.23,0,0,0,1.46,2.54c.8.46,1.47.09,1.47-.84a3.25,3.25,0,0,0-1.47-2.53C259.27,458.9,258.62,459.28,258.62,460.2Z" transform="translate(-26 -32)"/><polygon class="cls-13" points="184.41 353.07 184.41 564.86 188.25 567.15 188.25 355.35 184.41 353.07"/><polygon class="cls-14" points="184.41 353.07 188.25 355.35 493.78 179.39 489.94 176.68 184.41 353.07"/><polygon class="cls-5" points="475.14 262.79 275.34 378.14 275.34 359.21 475.14 243.86 475.14 262.79"/><g class="cls-15"><text class="cls-16" transform="matrix(0.87, -0.5, 0, 1, 340.59, 334.18)">ww</text><text class="cls-17" transform="matrix(0.87, -0.5, 0, 1, 354.1, 326.41)">w</text><text class="cls-18" transform="matrix(0.87, -0.5, 0, 1, 360.39, 322.8)">.</text><text class="cls-19" transform="matrix(0.87, -0.5, 0, 1, 362.26, 321.72)">w</text><text class="cls-18" transform="matrix(0.87, -0.5, 0, 1, 368.83, 317.95)">ebsi</text><text class="cls-19" transform="matrix(0.87, -0.5, 0, 1, 384.18, 309.13)">t</text><text class="cls-19" transform="matrix(0.87, -0.5, 0, 1, 387.12, 307.44)">e</text><text class="cls-18" transform="matrix(0.87, -0.5, 0, 1, 391.53, 304.9)">.</text><text class="cls-20" transform="matrix(0.87, -0.5, 0, 1, 393.4, 303.83)">c</text><text class="cls-18" transform="matrix(0.87, -0.5, 0, 1, 397.4, 301.53)">om</text></g><polygon class="cls-1" points="273.06 357.89 275.34 359.21 475.14 243.86 472.86 242.53 273.06 357.89"/><polygon class="cls-7" points="275.34 378.14 273.06 376.82 273.06 357.89 275.34 359.21 275.34 378.14"/><polygon class="cls-21" points="212.38 202.4 135.21 246.95 135.21 179.99 212.38 135.44 212.38 202.4"/><polygon class="cls-22" points="212.38 135.44 135.21 179.99 130.9 177.65 208.05 133.11 212.38 135.44"/><polygon class="cls-23" points="130.9 244.6 135.21 246.95 135.21 179.99 130.9 177.65 130.9 244.6"/><line class="cls-24" x1="166.5" y1="192.07" x2="162.18" y2="189.73"/><path class="cls-5" d="M224.52,213.78h0c0-10.65-7.52-14.94-16.8-9.58C201,208.13,195.17,216,192.5,224.1a12.37,12.37,0,0,0-4.34,1.6c-6.82,3.93-12.35,13.48-12.35,21.31s5.53,11,12.35,7L224,233.35a18.47,18.47,0,0,0,8.39-14.49C232.4,213.71,228.92,211.55,224.52,213.78Z" transform="translate(-26 -32)"/><path class="cls-7" d="M224.52,213.75h0a5.69,5.69,0,0,1,5.37-.35h0l-4.15-2.24a4,4,0,0,0-1.45-.53A19.19,19.19,0,0,1,224.52,213.75Z" transform="translate(-26 -32)"/><path class="cls-25" d="M175.81,247c0-7.86,5.53-17.37,12.35-21.31a12.57,12.57,0,0,1,4.34-1.6c2.62-8.11,8.48-16,15.22-19.9,4.52-2.62,8.64-2.93,11.66-1.31h0l-4.27-2.3c-3-1.64-7.15-1.31-11.71,1.31-6.73,3.93-12.54,11.79-15.22,19.9a12.47,12.47,0,0,0-4.34,1.59c-6.82,3.93-12.35,13.48-12.35,21.32,0,3.93,1.31,6.65,3.61,7.92l4.54,2.47h0C177.28,253.78,175.81,251,175.81,247Z" transform="translate(-26 -32)"/><polygon class="cls-26" points="271.33 202.4 194.17 246.95 194.17 179.99 271.33 135.44 271.33 202.4"/><polygon class="cls-22" points="271.33 135.44 194.17 179.99 189.84 177.65 267.02 133.11 271.33 135.44"/><polygon class="cls-23" points="189.84 244.6 194.17 246.95 194.17 179.99 189.84 177.65 189.84 244.6"/><line class="cls-24" x1="225.45" y1="192.07" x2="221.14" y2="189.73"/><polygon class="cls-6" points="510.34 293.03 392.37 361.73 390.13 360.45 508.1 291.76 510.34 293.03"/><polygon class="cls-6" points="392.37 361.73 392.75 461.87 390.5 460.58 390.13 360.45 392.37 361.73"/><polygon class="cls-27" points="509.17 392.29 394.28 459.19 393.92 362.61 508.8 295.71 509.17 392.29"/><path class="cls-28" d="M536.72,425.17l-118,68.7-.38-100.14,118-68.68Zm-114.9,63.36,111.81-65.12-.35-93L421.46,395.52Z" transform="translate(-26 -32)"/><path class="cls-29" d="M318.82,580.18c0-11-7.79-15.48-17.41-9.93s-17.34,19-17.34,30c0,9.35,5.59,14,13.1,11.79l4.26,6,4.26-10.91C313.23,600.62,318.82,589.54,318.82,580.18Z" transform="translate(-26 -32)"/><path class="cls-5" d="M304,590.48A5.79,5.79,0,0,1,301.4,595c-1.44.83-2.62.17-2.62-1.5a5.78,5.78,0,0,1,2.62-4.5C302.86,588.16,304,588.83,304,590.48Z" transform="translate(-26 -32)"/><path class="cls-5" d="M312.46,585.61a5.73,5.73,0,0,1-2.62,4.5c-1.44.84-2.62.17-2.62-1.48a5.71,5.71,0,0,1,2.62-4.5C311.29,583.29,312.46,584,312.46,585.61Z" transform="translate(-26 -32)"/><path class="cls-5" d="M290.37,598.37c0,1.65,1.17,2.31,2.62,1.49a5.79,5.79,0,0,0,2.62-4.51c0-1.65-1.18-2.32-2.62-1.49A5.78,5.78,0,0,0,290.37,598.37Z" transform="translate(-26 -32)"/><path class="cls-30" d="M284.07,600.29c0-11,7.86-24.48,17.41-30,4.79-2.76,9.17-3,12.29-1.31L309,566.28c-3.14-1.77-7.47-1.48-12.25,1.31-9.61,5.56-17.41,19-17.41,30,0,5.46,1.91,9.3,5,11.12l4.75,2.75C286,609.71,284.07,605.78,284.07,600.29Z" transform="translate(-26 -32)"/><path class="cls-30" d="M313.9,569.1h0l-.15-.08Z" transform="translate(-26 -32)"/><path class="cls-30" d="M297.73,612.89l-.57-.82a13.33,13.33,0,0,1-2.41.47l2,2.84,4.65,2.69-3.68-5.18Z" transform="translate(-26 -32)"/><path class="cls-31" d="M362,555.28c0-11-7.79-15.48-17.41-9.93s-17.42,19-17.42,30c0,9.35,5.61,14,13.1,11.79l4.26,6,4.24-10.91C356.36,575.72,362,564.63,362,555.28Z" transform="translate(-26 -32)"/><path class="cls-5" d="M344.55,574.12c4.69-4.82,8.32-15.17,5.49-16.64-2.19-1.14-5.49,6.39-5.49,6.39s-3.31-3.7-5.5,0C336.22,568.55,339.85,574.71,344.55,574.12Z" transform="translate(-26 -32)"/><path class="cls-30" d="M327.13,575.39c0-11,7.79-24.49,17.42-30,4.8-2.76,9.17-3.05,12.29-1.31l-4.65-2.66c-3.14-1.75-7.48-1.47-12.25,1.31-9.63,5.55-17.42,19-17.42,30,0,5.46,1.91,9.3,5,11.12l4.76,2.75C329.08,584.82,327.13,580.89,327.13,575.39Z" transform="translate(-26 -32)"/><path class="cls-30" d="M357,544.21h0l-.13-.08Z" transform="translate(-26 -32)"/><path class="cls-30" d="M340.87,588l-.57-.83a12.49,12.49,0,0,1-2.42.48l2,2.84,4.65,2.68L340.87,588Z" transform="translate(-26 -32)"/><path class="cls-32" d="M405.09,530.38c0-11-7.8-15.49-17.41-9.93s-17.41,19-17.41,30c0,9.36,5.59,14,13.1,11.79l4.26,6,4.25-10.91C399.49,550.76,405.09,539.73,405.09,530.38Z" transform="translate(-26 -32)"/><path class="cls-5" d="M384.52,542.32a6.1,6.1,0,0,1-2.2,4.9c-1.31.72-2.27-.3-2.27-2.28a6.09,6.09,0,0,1,2.27-4.9C383.5,539.31,384.52,540.35,384.52,542.32Z" transform="translate(-26 -32)"/><path class="cls-5" d="M390.83,538.67c0,2,1,3,2.27,2.29a6.08,6.08,0,0,0,2.27-4.9c0-2-1-3-2.27-2.29A6.18,6.18,0,0,0,390.83,538.67Z" transform="translate(-26 -32)"/><path class="cls-5" d="M387.68,546.19c-1.31.74-2.35.14-2.35-1.31a.94.94,0,0,1,.41-.72.26.26,0,0,1,.42.23c0,1,.68,1.31,1.52.87a3.37,3.37,0,0,0,1.52-2.62.87.87,0,0,1,.42-.71c.22-.14.4,0,.4.24A5.25,5.25,0,0,1,387.68,546.19Z" transform="translate(-26 -32)"/><path class="cls-30" d="M370.27,550.48c0-11,7.79-24.48,17.41-30,4.79-2.77,9.17-3.06,12.29-1.31l-4.69-2.7c-3.15-1.76-7.47-1.47-12.25,1.31-9.62,5.55-17.41,19-17.41,30,0,5.46,1.9,9.3,5,11.12l4.76,2.75C372.22,559.93,370.27,556,370.27,550.48Z" transform="translate(-26 -32)"/><path class="cls-30" d="M400.16,519.32h0l-.14-.08Z" transform="translate(-26 -32)"/><path class="cls-30" d="M384,563.09l-.58-.82a14.09,14.09,0,0,1-2.41.48l2,2.84,4.65,2.68L384,563Z" transform="translate(-26 -32)"/><polygon class="cls-6" points="536.92 308.37 418.95 377.07 416.71 375.79 534.68 307.09 536.92 308.37"/><polygon class="cls-6" points="418.95 377.07 419.33 477.19 417.08 475.91 416.71 375.79 418.95 377.07"/><polygon class="cls-33" points="535.75 407.63 420.85 474.53 420.5 377.94 535.38 311.05 535.75 407.63"/><ellipse class="cls-9" cx="504.18" cy="437.15" rx="22.06" ry="12.73" transform="translate(-152.88 622.11) rotate(-59.9)"/><polygon class="cls-34" points="535.61 371.67 420.72 438.57 420.85 474.53 535.75 407.63 535.61 371.67"/><polygon class="cls-35" points="462.56 414.22 420.85 474.53 535.75 407.63 493.78 396.04 462.56 414.22"/><polygon class="cls-36" points="535.61 371.63 535.53 353.23 519.11 381.31 535.61 371.63"/><polygon class="cls-36" points="526.24 377.15 517.93 372.76 509.72 386.8 526.24 377.15"/><polygon class="cls-36" points="420.72 438.52 420.67 420.1 437.21 429.01 420.72 438.52"/><polygon class="cls-36" points="430.1 433.13 438.34 419.11 446.61 423.56 430.1 433.13"/><path class="cls-28" d="M563.3,440.5l-118,68.69L445,409.07l118-68.7ZM448.38,503.86,560.2,438.75l-.35-93L448,410.85Z" transform="translate(-26 -32)"/><polygon class="cls-37" points="455.93 537.64 396.51 571.96 396.51 517.49 455.93 483.18 455.93 537.64"/><polygon class="cls-38" points="455.93 483.18 396.51 517.49 392.46 515.3 451.9 480.98 455.93 483.18"/><polygon class="cls-39" points="392.46 569.76 396.51 571.96 396.51 517.49 392.46 515.3 392.46 569.76"/><polygon class="cls-40" points="423.62 542.68 419.58 540.49 419.58 521.37 436.81 520.99 440.85 523.17 423.62 523.55 423.62 542.68"/><polygon class="cls-5" points="440.85 523.17 423.62 523.55 423.62 542.68 440.85 523.17"/><path class="cls-41" d="M498.14,510.79v85.72c-2.22,12.34,8.85,13.76,8.85,13.76l45.29-26.13V479.54Z" transform="translate(-26 -32)"/><polygon class="cls-7" points="517.99 493.45 480.42 515.14 480.42 511.79 517.99 490.1 517.99 493.45"/><polygon class="cls-7" points="517.99 499.8 480.42 521.5 480.42 518.13 517.99 496.44 517.99 499.8"/><polygon class="cls-7" points="517.99 506.14 480.42 527.84 480.42 524.49 517.99 502.79 517.99 506.14"/><polygon class="cls-7" points="517.99 512.49 480.42 534.19 480.42 530.83 517.99 509.13 517.99 512.49"/><polygon class="cls-7" points="517.99 518.84 480.42 540.53 480.42 537.18 517.99 515.49 517.99 518.84"/><polygon class="cls-7" points="517.99 525.18 480.42 546.87 480.42 543.52 517.99 521.83 517.99 525.18"/><polygon class="cls-7" points="517.99 531.53 480.42 553.23 480.42 549.87 517.99 528.17 517.99 531.53"/><text class="cls-42" transform="matrix(0.87, -0.5, 0, 1, 494, 496.94)">T</text><polygon class="cls-7" points="469.92 567.43 472.14 567.43 472.14 478.79 469.92 477.51 469.92 567.43"/><polygon class="cls-43" points="469.92 477.51 472.14 478.79 526.28 447.54 524.05 446.25 469.92 477.51"/><path class="cls-7" d="M505,610.8a6,6,0,0,1-3-.92,13.11,13.11,0,0,1-6.07-10.48h2.22a11.05,11.05,0,0,0,4.95,8.54,2.28,2.28,0,0,0,3.22.1,2.3,2.3,0,0,0,.63-2.29,11.11,11.11,0,0,0-4.95-8.54l1.1-1.91a13.08,13.08,0,0,1,6.06,10.48,4.82,4.82,0,0,1-2.16,4.49A3.82,3.82,0,0,1,505,610.8Z" transform="translate(-26 -32)"/><path class="cls-43" d="M557.23,564.07,503.09,595.3a13.31,13.31,0,0,1,5.67,7.73h0a10.32,10.32,0,0,1,.39,2.71,4.82,4.82,0,0,1-2.16,4.49L561.14,579a4.92,4.92,0,0,0,2.16-4.5A13.21,13.21,0,0,0,557.23,564.07Z" transform="translate(-26 -32)"/><path class="cls-6" d="M388.75,213.7a22,22,0,0,0,10-17.23c0-6.33-4.46-8.88-10-5.7a16.85,16.85,0,0,0-2.2,1.56A23.12,23.12,0,0,1,379,205.27a15.79,15.79,0,0,0-.26,2.74C378.76,214.34,383.24,216.89,388.75,213.7Z" transform="translate(-26 -32)"/><path class="cls-6" d="M406.78,171.24" transform="translate(-26 -32)"/><path class="cls-6" d="M363.31,216.93h0c0-5.46,20.74-41.17,25.44-43.88,7-4.05,13.36-4.46,18-1.85l-11-6.33c-4.66-3.19-11.38-3-18.85,1.31-14.06,8.11-25.44,27.76-25.44,43.88h0c0,9.49,2.62,20.41,12.71,26l11.54,6.66C365.85,237.05,363.31,226.3,363.31,216.93Z" transform="translate(-26 -32)"/><path class="cls-6" d="M376.1,243Z" transform="translate(-26 -32)"/><path class="cls-44" d="M388.75,173.05c-14.05,8.11-25.44,27.76-25.44,43.88h0c0,12.64,4.6,27.8,25.44,29.61,20.83-25.86,25.43-46.34,25.44-58.95h0C414.19,171.44,402.8,164.94,388.75,173.05Zm0,40.61c-5.51,3.19-10,.64-10-5.69s4.48-14,10-17.24,10-.63,10,5.7a22,22,0,0,1-10,17.27Z" transform="translate(-26 -32)"/><polygon class="cls-25" points="210.41 210.87 215.04 205.43 215.04 205.43 226.32 192.14 222.01 189.81 206.1 208.54 206.1 211.26 210.41 213.61 210.41 211.35 210.41 211.35 210.41 210.87"/><path class="cls-7" d="M243.46,240.15a7.71,7.71,0,0,1,2.28-.41l5.58.25a1,1,0,0,1,.56.14h0l-4.36-2.37h0a1.17,1.17,0,0,0-.55-.13h-1l-.28.33A22.17,22.17,0,0,1,243.46,240.15Z" transform="translate(-26 -32)"/><path class="cls-25" d="M266.2,210.88a7.58,7.58,0,0,1,1.21-2.45,6.14,6.14,0,0,1,1.86-1.69l2.62-1.49h0l-4.33-2.35-2.62,1.51a6.39,6.39,0,0,0-1.87,1.68,7.34,7.34,0,0,0-1.19,2.45l-11.16,40,4.32,2.34h0Z" transform="translate(-26 -32)"/><path class="cls-25" d="M270.68,214.76h0l4.43,2.41h0a.73.73,0,0,1-.3-.22,1.37,1.37,0,0,1-.22-.83v-4.85l15.9.37-4.31-2.33-15.35-.37-.55,2v2.82a1.26,1.26,0,0,0,.22.82A.69.69,0,0,0,270.68,214.76Z" transform="translate(-26 -32)"/><path class="cls-25" d="M274.81,227.19a4.06,4.06,0,0,1,.76-1.17l5.58-6.69a20.71,20.71,0,0,1,2.28-2.21,8.9,8.9,0,0,1-2.28.42l-4.61-.2-5.24,6.34a3.93,3.93,0,0,0-.76,1.17,2.87,2.87,0,0,0-.23,1.08v4.85l4.31,2.34v-4.84A3.13,3.13,0,0,1,274.81,227.19Z" transform="translate(-26 -32)"/><path class="cls-5" d="M245.77,237.93a23.9,23.9,0,0,1-2.28,2.22,7.65,7.65,0,0,1,2.28-.41l5.58.25a.81.81,0,0,1,.74.29,1.34,1.34,0,0,1,.24.82V246l-15.92-.34v-2.7l15.92-18.73V229a2.88,2.88,0,0,1-.24,1.09,4.17,4.17,0,0,1-.74,1.19Z" transform="translate(-26 -32)"/><path class="cls-5" d="M260.82,245.07a8.17,8.17,0,0,1-.55,1.42,8.79,8.79,0,0,1-.78,1.23,6.42,6.42,0,0,1-.9,1,4.64,4.64,0,0,1-.94.71l-2.62,1.5,11.15-40a7.36,7.36,0,0,1,1.2-2.45,6.26,6.26,0,0,1,1.86-1.69l2.62-1.49Z" transform="translate(-26 -32)"/><path class="cls-5" d="M290.49,211.65v2.73l-15.9,18.72v-4.85a3,3,0,0,1,.22-1.09,3.88,3.88,0,0,1,.76-1.16l5.58-6.7a20.71,20.71,0,0,1,2.28-2.21,8.9,8.9,0,0,1-2.28.42l-5.58-.24a.87.87,0,0,1-.76-.31,1.37,1.37,0,0,1-.22-.83v-4.84Z" transform="translate(-26 -32)"/><rect class="cls-30" x="279.96" y="336.95" width="29.83" height="10.38" transform="translate(-174.7 395.32) rotate(-60.11)"/><path class="cls-45" d="M268.77,397a9.84,9.84,0,0,1-7-3,9.22,9.22,0,0,1-1.5-2.06,9.75,9.75,0,0,1,.12-9.59h0l18.93-32.65a9.76,9.76,0,0,1,13.27-3.58h0a9.76,9.76,0,0,1,3.64,13.31l0,.05-18.93,32.66A9.78,9.78,0,0,1,268.77,397Z" transform="translate(-26 -32)"/><path class="cls-46" d="M313.64,340.54a18.9,18.9,0,0,1-9.57-2.47c-3.83-2.22-10.29-8-10.29-21.49,0-18.74,12.78-40.8,29.12-50.23,11.85-6.86,20.12-4.12,24-1.89s10.31,8,10.31,21.5c0,18.74-12.79,40.8-29.12,50.24A28.81,28.81,0,0,1,313.64,340.54Zm23.76-68.12a19.45,19.45,0,0,0-9.33,2.94c-13,7.49-23.94,26.4-23.94,41.28,0,6.08,1.87,10.65,5.12,12.52s8.28,1.22,13.65-1.89c13-7.48,23.93-26.38,23.93-41.26,0-6.08-1.86-10.65-5.12-12.52a8.56,8.56,0,0,0-4.31-1.12Z" transform="translate(-26 -32)"/><path class="cls-30" d="M293.78,316.58c0-18.74,12.78-40.8,29.12-50.23,11.85-6.86,20.12-4.12,24-1.89l-12.68-7.32c-3.93-2.23-12.14-5-24,1.88-16.32,9.42-29.1,31.44-29.1,50.24,0,13.52,6.44,19.27,10.29,21.49l12.68,7.32C300.24,335.92,293.78,330.1,293.78,316.58Z" transform="translate(-26 -32)"/><path class="cls-30" d="M309.25,329.11c3.3,1.9,8.28,1.22,13.65-1.89,13-7.48,23.93-26.38,23.93-41.26,0-6.08-1.86-10.65-5.12-12.53a8.63,8.63,0,0,0-4.31-1.06,15,15,0,0,0-3.93.59,23.54,23.54,0,0,1,.64,5.67c0,14.89-11,33.78-23.94,41.27a24,24,0,0,1-5.43,2.36A10.5,10.5,0,0,0,309.25,329.11Z" transform="translate(-26 -32)"/><path class="cls-7" d="M345.08,284.83c0,15.27-10.78,33.89-24.09,41.58s-24.11,1.53-24.11-13.74,10.8-33.89,24.11-41.58S345.08,269.56,345.08,284.83Z" transform="translate(-26 -32)"/><path class="cls-47" d="M313.64,340.54a18.9,18.9,0,0,1-9.57-2.47c-3.83-2.22-10.29-8-10.29-21.49,0-18.74,12.78-40.8,29.12-50.23,11.85-6.86,20.12-4.12,24-1.89s10.31,8,10.31,21.5c0,18.74-12.79,40.8-29.12,50.24A28.81,28.81,0,0,1,313.64,340.54Zm23.76-68.12a19.45,19.45,0,0,0-9.33,2.94c-13,7.49-23.94,26.4-23.94,41.28,0,6.08,1.87,10.65,5.12,12.52s8.28,1.22,13.65-1.89c13-7.48,23.93-26.38,23.93-41.26,0-6.08-1.86-10.65-5.12-12.52a8.56,8.56,0,0,0-4.31-1.12Z" transform="translate(-26 -32)"/><path class="cls-7" d="M340.4,280.07a21.82,21.82,0,0,1,.39,6.79,32.08,32.08,0,0,1-1.24,6.3,43.19,43.19,0,0,1-5.31,11.11,41.34,41.34,0,0,0,2.56-11.62,28,28,0,0,0-.19-5.71,17,17,0,0,0-1.5-5.08,2.82,2.82,0,0,1,5-2.53,2.23,2.23,0,0,1,.22.61Z" transform="translate(-26 -32)"/></g></svg>